<mxfile host="Electron" modified="2024-02-29T08:24:20.328Z" agent="Mozilla/5.0 (Windows NT 10.0; Win64; x64) AppleWebKit/537.36 (KHTML, like Gecko) draw.io/21.2.1 Chrome/112.0.5615.87 Electron/24.1.2 Safari/537.36" etag="XbQVtaV5h47rCoD3-6GZ" version="21.2.1" type="device">
  <diagram name="第 1 页" id="09D8fi8Q5Lg_BgYtTG0T">
    <mxGraphModel dx="1036" dy="606" grid="1" gridSize="10" guides="1" tooltips="1" connect="1" arrows="1" fold="1" page="1" pageScale="1" pageWidth="827" pageHeight="1169" math="0" shadow="0">
      <root>
        <mxCell id="0" />
        <mxCell id="1" parent="0" />
        <mxCell id="Uk1YHq_qjVBmFnVGHBF_-23" style="edgeStyle=orthogonalEdgeStyle;rounded=0;orthogonalLoop=1;jettySize=auto;html=1;" parent="1" source="FkndUxxzKpj9c6K7OWGn-1" target="IVscDV-QIPgrvAxyfhLB-3" edge="1">
          <mxGeometry relative="1" as="geometry" />
        </mxCell>
        <mxCell id="Uk1YHq_qjVBmFnVGHBF_-24" style="edgeStyle=orthogonalEdgeStyle;rounded=0;orthogonalLoop=1;jettySize=auto;html=1;" parent="1" source="FkndUxxzKpj9c6K7OWGn-1" target="IVscDV-QIPgrvAxyfhLB-4" edge="1">
          <mxGeometry relative="1" as="geometry" />
        </mxCell>
        <mxCell id="Uk1YHq_qjVBmFnVGHBF_-26" style="edgeStyle=elbowEdgeStyle;rounded=0;orthogonalLoop=1;jettySize=auto;html=1;entryX=0.5;entryY=0;entryDx=0;entryDy=0;elbow=vertical;" parent="1" source="FkndUxxzKpj9c6K7OWGn-1" target="IVscDV-QIPgrvAxyfhLB-5" edge="1">
          <mxGeometry relative="1" as="geometry" />
        </mxCell>
        <mxCell id="Uk1YHq_qjVBmFnVGHBF_-27" style="edgeStyle=elbowEdgeStyle;rounded=0;orthogonalLoop=1;jettySize=auto;html=1;entryX=0.5;entryY=0;entryDx=0;entryDy=0;elbow=vertical;" parent="1" source="FkndUxxzKpj9c6K7OWGn-1" target="IVscDV-QIPgrvAxyfhLB-2" edge="1">
          <mxGeometry relative="1" as="geometry" />
        </mxCell>
        <mxCell id="FkndUxxzKpj9c6K7OWGn-1" value="后台管理" style="rounded=0;whiteSpace=wrap;html=1;fontSize=16;" parent="1" vertex="1">
          <mxGeometry x="334" y="200" width="160" height="70" as="geometry" />
        </mxCell>
        <mxCell id="Uk1YHq_qjVBmFnVGHBF_-1" style="edgeStyle=orthogonalEdgeStyle;rounded=0;orthogonalLoop=1;jettySize=auto;html=1;entryX=0.5;entryY=0;entryDx=0;entryDy=0;" parent="1" source="IVscDV-QIPgrvAxyfhLB-2" target="IVscDV-QIPgrvAxyfhLB-9" edge="1">
          <mxGeometry relative="1" as="geometry" />
        </mxCell>
        <mxCell id="Uk1YHq_qjVBmFnVGHBF_-2" style="edgeStyle=orthogonalEdgeStyle;rounded=0;orthogonalLoop=1;jettySize=auto;html=1;" parent="1" source="IVscDV-QIPgrvAxyfhLB-2" target="IVscDV-QIPgrvAxyfhLB-8" edge="1">
          <mxGeometry relative="1" as="geometry" />
        </mxCell>
        <mxCell id="Uk1YHq_qjVBmFnVGHBF_-4" style="edgeStyle=orthogonalEdgeStyle;rounded=0;orthogonalLoop=1;jettySize=auto;html=1;entryX=0.5;entryY=0;entryDx=0;entryDy=0;" parent="1" source="IVscDV-QIPgrvAxyfhLB-2" target="IVscDV-QIPgrvAxyfhLB-7" edge="1">
          <mxGeometry relative="1" as="geometry" />
        </mxCell>
        <mxCell id="Uk1YHq_qjVBmFnVGHBF_-5" style="edgeStyle=orthogonalEdgeStyle;rounded=0;orthogonalLoop=1;jettySize=auto;html=1;entryX=0.5;entryY=0;entryDx=0;entryDy=0;" parent="1" source="IVscDV-QIPgrvAxyfhLB-2" target="IVscDV-QIPgrvAxyfhLB-10" edge="1">
          <mxGeometry relative="1" as="geometry" />
        </mxCell>
        <mxCell id="IVscDV-QIPgrvAxyfhLB-2" value="用户管理" style="rounded=0;whiteSpace=wrap;html=1;fontSize=16;" parent="1" vertex="1">
          <mxGeometry x="49" y="320" width="130" height="60" as="geometry" />
        </mxCell>
        <mxCell id="Uk1YHq_qjVBmFnVGHBF_-7" style="edgeStyle=orthogonalEdgeStyle;rounded=0;orthogonalLoop=1;jettySize=auto;html=1;" parent="1" source="IVscDV-QIPgrvAxyfhLB-3" target="IVscDV-QIPgrvAxyfhLB-14" edge="1">
          <mxGeometry relative="1" as="geometry" />
        </mxCell>
        <mxCell id="Uk1YHq_qjVBmFnVGHBF_-8" style="edgeStyle=orthogonalEdgeStyle;rounded=0;orthogonalLoop=1;jettySize=auto;html=1;entryX=0.5;entryY=0;entryDx=0;entryDy=0;" parent="1" source="IVscDV-QIPgrvAxyfhLB-3" target="IVscDV-QIPgrvAxyfhLB-12" edge="1">
          <mxGeometry relative="1" as="geometry" />
        </mxCell>
        <mxCell id="Uk1YHq_qjVBmFnVGHBF_-9" style="edgeStyle=orthogonalEdgeStyle;rounded=0;orthogonalLoop=1;jettySize=auto;html=1;entryX=0.5;entryY=0;entryDx=0;entryDy=0;" parent="1" source="IVscDV-QIPgrvAxyfhLB-3" target="IVscDV-QIPgrvAxyfhLB-13" edge="1">
          <mxGeometry relative="1" as="geometry" />
        </mxCell>
        <mxCell id="Uk1YHq_qjVBmFnVGHBF_-10" style="edgeStyle=orthogonalEdgeStyle;rounded=0;orthogonalLoop=1;jettySize=auto;html=1;" parent="1" source="IVscDV-QIPgrvAxyfhLB-3" target="IVscDV-QIPgrvAxyfhLB-15" edge="1">
          <mxGeometry relative="1" as="geometry" />
        </mxCell>
        <mxCell id="Uk1YHq_qjVBmFnVGHBF_-11" style="edgeStyle=orthogonalEdgeStyle;rounded=0;orthogonalLoop=1;jettySize=auto;html=1;entryX=0.5;entryY=0;entryDx=0;entryDy=0;" parent="1" source="IVscDV-QIPgrvAxyfhLB-3" target="IVscDV-QIPgrvAxyfhLB-16" edge="1">
          <mxGeometry relative="1" as="geometry" />
        </mxCell>
        <mxCell id="IVscDV-QIPgrvAxyfhLB-3" value="商品管理" style="rounded=0;whiteSpace=wrap;html=1;fontSize=16;" parent="1" vertex="1">
          <mxGeometry x="248" y="320" width="130" height="60" as="geometry" />
        </mxCell>
        <mxCell id="Uk1YHq_qjVBmFnVGHBF_-12" style="edgeStyle=orthogonalEdgeStyle;rounded=0;orthogonalLoop=1;jettySize=auto;html=1;" parent="1" source="IVscDV-QIPgrvAxyfhLB-4" target="IVscDV-QIPgrvAxyfhLB-17" edge="1">
          <mxGeometry relative="1" as="geometry" />
        </mxCell>
        <mxCell id="Uk1YHq_qjVBmFnVGHBF_-13" style="edgeStyle=orthogonalEdgeStyle;rounded=0;orthogonalLoop=1;jettySize=auto;html=1;entryX=0.5;entryY=0;entryDx=0;entryDy=0;" parent="1" source="IVscDV-QIPgrvAxyfhLB-4" target="IVscDV-QIPgrvAxyfhLB-18" edge="1">
          <mxGeometry relative="1" as="geometry" />
        </mxCell>
        <mxCell id="Uk1YHq_qjVBmFnVGHBF_-14" style="edgeStyle=orthogonalEdgeStyle;rounded=0;orthogonalLoop=1;jettySize=auto;html=1;entryX=0.5;entryY=0;entryDx=0;entryDy=0;" parent="1" source="IVscDV-QIPgrvAxyfhLB-4" target="IVscDV-QIPgrvAxyfhLB-19" edge="1">
          <mxGeometry relative="1" as="geometry" />
        </mxCell>
        <mxCell id="IVscDV-QIPgrvAxyfhLB-4" value="订单管理" style="rounded=0;whiteSpace=wrap;html=1;fontSize=16;" parent="1" vertex="1">
          <mxGeometry x="433" y="320" width="130" height="60" as="geometry" />
        </mxCell>
        <mxCell id="Uk1YHq_qjVBmFnVGHBF_-19" style="edgeStyle=orthogonalEdgeStyle;rounded=0;orthogonalLoop=1;jettySize=auto;html=1;entryX=0.5;entryY=0;entryDx=0;entryDy=0;" parent="1" source="IVscDV-QIPgrvAxyfhLB-5" target="Uk1YHq_qjVBmFnVGHBF_-16" edge="1">
          <mxGeometry relative="1" as="geometry" />
        </mxCell>
        <mxCell id="Uk1YHq_qjVBmFnVGHBF_-20" style="edgeStyle=orthogonalEdgeStyle;rounded=0;orthogonalLoop=1;jettySize=auto;html=1;entryX=0.5;entryY=0;entryDx=0;entryDy=0;" parent="1" source="IVscDV-QIPgrvAxyfhLB-5" target="Uk1YHq_qjVBmFnVGHBF_-17" edge="1">
          <mxGeometry relative="1" as="geometry" />
        </mxCell>
        <mxCell id="Uk1YHq_qjVBmFnVGHBF_-21" style="edgeStyle=orthogonalEdgeStyle;rounded=0;orthogonalLoop=1;jettySize=auto;html=1;entryX=0.5;entryY=0;entryDx=0;entryDy=0;" parent="1" source="IVscDV-QIPgrvAxyfhLB-5" target="Uk1YHq_qjVBmFnVGHBF_-15" edge="1">
          <mxGeometry relative="1" as="geometry" />
        </mxCell>
        <mxCell id="Uk1YHq_qjVBmFnVGHBF_-22" style="edgeStyle=orthogonalEdgeStyle;rounded=0;orthogonalLoop=1;jettySize=auto;html=1;entryX=0.5;entryY=0;entryDx=0;entryDy=0;" parent="1" source="IVscDV-QIPgrvAxyfhLB-5" target="Uk1YHq_qjVBmFnVGHBF_-18" edge="1">
          <mxGeometry relative="1" as="geometry" />
        </mxCell>
        <mxCell id="dnZ8e3zDJob13JlKD9KA-4" style="edgeStyle=orthogonalEdgeStyle;rounded=0;orthogonalLoop=1;jettySize=auto;html=1;entryX=0.5;entryY=0;entryDx=0;entryDy=0;" parent="1" source="IVscDV-QIPgrvAxyfhLB-5" target="IVscDV-QIPgrvAxyfhLB-11" edge="1">
          <mxGeometry relative="1" as="geometry" />
        </mxCell>
        <mxCell id="IVscDV-QIPgrvAxyfhLB-5" value="商店管理" style="rounded=0;whiteSpace=wrap;html=1;fontSize=16;" parent="1" vertex="1">
          <mxGeometry x="621" y="320" width="130" height="60" as="geometry" />
        </mxCell>
        <mxCell id="IVscDV-QIPgrvAxyfhLB-7" value="删除用户" style="rounded=0;whiteSpace=wrap;html=1;fontSize=16;" parent="1" vertex="1">
          <mxGeometry x="119.5" y="420" width="30" height="150" as="geometry" />
        </mxCell>
        <mxCell id="IVscDV-QIPgrvAxyfhLB-8" value="修改用户信息" style="rounded=0;whiteSpace=wrap;html=1;fontSize=16;" parent="1" vertex="1">
          <mxGeometry x="79.5" y="420" width="30" height="150" as="geometry" />
        </mxCell>
        <mxCell id="IVscDV-QIPgrvAxyfhLB-9" value="增加用户" style="rounded=0;whiteSpace=wrap;html=1;fontSize=16;" parent="1" vertex="1">
          <mxGeometry x="39.5" y="420" width="30" height="150" as="geometry" />
        </mxCell>
        <mxCell id="IVscDV-QIPgrvAxyfhLB-10" value="查看用户" style="rounded=0;whiteSpace=wrap;html=1;fontSize=16;" parent="1" vertex="1">
          <mxGeometry x="158.5" y="420" width="30" height="150" as="geometry" />
        </mxCell>
        <mxCell id="IVscDV-QIPgrvAxyfhLB-11" value="商家注册审核" style="rounded=0;whiteSpace=wrap;html=1;fontSize=16;" parent="1" vertex="1">
          <mxGeometry x="749.75" y="420" width="30" height="150" as="geometry" />
        </mxCell>
        <mxCell id="IVscDV-QIPgrvAxyfhLB-12" value="增加商品" style="rounded=0;whiteSpace=wrap;html=1;fontSize=16;" parent="1" vertex="1">
          <mxGeometry x="218" y="420" width="30" height="150" as="geometry" />
        </mxCell>
        <mxCell id="IVscDV-QIPgrvAxyfhLB-13" value="修改商品信息" style="rounded=0;whiteSpace=wrap;html=1;fontSize=16;" parent="1" vertex="1">
          <mxGeometry x="258" y="420" width="30" height="150" as="geometry" />
        </mxCell>
        <mxCell id="IVscDV-QIPgrvAxyfhLB-14" value="删除商品" style="rounded=0;whiteSpace=wrap;html=1;fontSize=16;" parent="1" vertex="1">
          <mxGeometry x="298" y="420" width="30" height="150" as="geometry" />
        </mxCell>
        <mxCell id="IVscDV-QIPgrvAxyfhLB-15" value="修改商品信息" style="rounded=0;whiteSpace=wrap;html=1;fontSize=16;" parent="1" vertex="1">
          <mxGeometry x="338" y="420" width="30" height="150" as="geometry" />
        </mxCell>
        <mxCell id="IVscDV-QIPgrvAxyfhLB-16" value="商品审核" style="rounded=0;whiteSpace=wrap;html=1;fontSize=16;" parent="1" vertex="1">
          <mxGeometry x="378" y="420" width="30" height="150" as="geometry" />
        </mxCell>
        <mxCell id="IVscDV-QIPgrvAxyfhLB-17" value="订单信息修改" style="rounded=0;whiteSpace=wrap;html=1;fontSize=16;flipH=1;" parent="1" vertex="1">
          <mxGeometry x="483" y="420" width="30" height="150" as="geometry" />
        </mxCell>
        <mxCell id="IVscDV-QIPgrvAxyfhLB-18" value="查找订单" style="rounded=0;whiteSpace=wrap;html=1;fontSize=16;flipH=1;" parent="1" vertex="1">
          <mxGeometry x="440" y="420" width="30" height="150" as="geometry" />
        </mxCell>
        <mxCell id="IVscDV-QIPgrvAxyfhLB-19" value="删除订单" style="rounded=0;whiteSpace=wrap;html=1;fontSize=16;flipH=1;" parent="1" vertex="1">
          <mxGeometry x="526" y="420" width="30" height="150" as="geometry" />
        </mxCell>
        <mxCell id="Uk1YHq_qjVBmFnVGHBF_-15" value="删除商店" style="rounded=0;whiteSpace=wrap;html=1;fontSize=16;flipH=1;" parent="1" vertex="1">
          <mxGeometry x="670.75" y="420" width="30" height="150" as="geometry" />
        </mxCell>
        <mxCell id="Uk1YHq_qjVBmFnVGHBF_-16" value="查找商店" style="rounded=0;whiteSpace=wrap;html=1;fontSize=16;flipH=1;" parent="1" vertex="1">
          <mxGeometry x="592.25" y="420" width="30" height="150" as="geometry" />
        </mxCell>
        <mxCell id="Uk1YHq_qjVBmFnVGHBF_-17" value="添加商店" style="rounded=0;whiteSpace=wrap;html=1;fontSize=16;flipH=1;" parent="1" vertex="1">
          <mxGeometry x="631.75" y="420" width="30" height="150" as="geometry" />
        </mxCell>
        <mxCell id="Uk1YHq_qjVBmFnVGHBF_-18" value="修改商店信息" style="rounded=0;whiteSpace=wrap;html=1;fontSize=16;flipH=1;" parent="1" vertex="1">
          <mxGeometry x="709.25" y="420" width="30" height="150" as="geometry" />
        </mxCell>
      </root>
    </mxGraphModel>
  </diagram>
</mxfile>
